<?xml version="1.0" encoding="UTF-8" standalone="no"?>
<!-- Created with Inkscape (http://www.inkscape.org/) -->

<svg
   width="68.800003mm"
   height="74.091667mm"
   viewBox="0 0 68.800003 74.091667"
   version="1.1"
   id="svg1"
   xml:space="preserve"
   xmlns="http://www.w3.org/2000/svg"
   xmlns:svg="http://www.w3.org/2000/svg"><defs
     id="defs1" /><g
     id="layer1"
     transform="translate(-88.010485,-99.049499)"><path
       style="fill:#1c1a31;fill-opacity:1;stroke:#fff1df;stroke-width:5.3;stroke-dasharray:none;stroke-opacity:1;paint-order:markers stroke fill"
       d="m 106.5355,167.84533 v -2.64584 h -3.96875 -3.968754 v -1.32291 -1.32292 H 97.27508 95.952163 v -1.32292 -1.32291 H 94.629247 93.30633 v -1.32292 -1.32292 h -1.322917 -1.322916 v -7.9375 -7.9375 h 1.322916 1.322917 v -5.29166 -5.29167 h 1.322917 1.322916 v -3.96875 -3.96875 h 1.322917 1.322916 v -1.32292 -1.32292 h 1.322917 1.322917 v -1.32291 -1.32292 h 13.22917 13.22916 v 1.32292 1.32291 h 1.32292 1.32292 v 1.32292 1.32292 h 2.64583 2.64583 v 1.32291 1.32292 h 1.32292 1.32292 v 2.64583 2.64584 h 1.32291 1.32292 v 1.32292 1.32291 h 1.32292 1.32291 v 1.32292 1.32292 h 1.32292 1.32292 v 1.32291 1.32292 h 1.32291 1.32292 v 1.32292 1.32291 h 1.32292 1.32292 v 1.32292 1.32292 h 1.32291 1.32292 v 2.64583 2.64583 h -1.32292 -1.32291 v 1.32292 1.32292 h -1.32292 -1.32292 v 1.32291 1.32292 h -2.64583 -2.64584 v 1.32292 1.32291 h -3.96875 -3.96875 v 1.32292 1.32292 h -1.32291 -1.32292 v 1.32291 1.32292 h -1.32292 -1.32291 v 1.32292 1.32291 h -5.29167 -5.29167 v 2.64584 2.64583 h -1.32291 -1.32292 v -2.64583 -2.64584 h -3.96875 -3.96875 v 2.64584 2.64583 h -1.32292 -1.32291 z m 23.8125,-6.61459 v -1.32291 h 1.32291 1.32292 v -1.32292 -1.32292 h -2.64583 -2.64584 v -1.32291 -1.32292 h -2.64583 -2.64583 v -1.32292 -1.32291 h -1.32292 -1.32292 v -1.32292 -1.32292 h -1.32291 -1.32292 v -2.64583 -2.64583 h 1.32292 1.32291 v -3.96875 -3.96875 h 1.32292 1.32292 v 3.96875 3.96875 h 2.64583 2.64583 v -1.32292 -1.32292 h 3.96875 3.96875 v -1.32291 -1.32292 h 3.96875 3.96875 v -1.32292 -1.32291 h -1.32291 -1.32292 v -1.32292 -1.32292 h -1.32292 -1.32291 v -1.32291 -1.32292 h -1.32292 -1.32292 v -2.64584 -2.64583 h -2.64583 -2.64583 v -1.32292 -1.32291 h -1.32292 -1.32292 v -1.32292 -1.32292 H 114.473 101.24383 v 1.32292 1.32292 h -1.322917 -1.322917 v 3.96875 3.96875 H 97.27508 95.952163 v 2.64583 2.64584 h 1.322917 1.322916 v 1.32291 1.32292 H 97.27508 95.952163 v 1.32292 1.32291 H 94.629247 93.30633 v 7.9375 7.9375 h 1.322917 1.322916 v 1.32292 1.32292 h 1.322917 1.322916 v 1.32291 1.32292 H 114.473 130.348 Z m -26.45834,-23.8125 v -1.32291 h -2.64583 -2.645834 v -1.32292 -1.32292 h 10.583334 10.58333 v 1.32292 1.32292 h -2.64583 -2.64583 v 1.32291 1.32292 h -5.29167 -5.29167 z m 5.29167,-7.9375 v -1.32292 h 1.32292 1.32291 v 1.32292 1.32292 h -1.32291 -1.32292 z m -7.9375,-2.64583 v -1.32292 h 2.64583 2.64584 v 1.32292 1.32291 h -2.64584 -2.64583 z m 13.22917,0 v -1.32292 h 2.64583 2.64583 v 1.32292 1.32291 h -2.64583 -2.64583 z m 29.10416,26.45833 v -1.32291 h -1.32291 -1.32292 v 1.32291 1.32292 h 1.32292 1.32291 z m -5.29166,-2.64583 v -1.32292 h -2.64584 -2.64583 v 1.32292 1.32292 h 2.64583 2.64584 z m -10.58334,-2.64583 v -1.32292 h -2.64583 -2.64583 v 1.32292 1.32291 h 2.64583 2.64583 z m 18.52084,0 v -1.32292 h -2.64584 -2.64583 v 1.32292 1.32291 h 2.64583 2.64584 z m 5.29167,-1.32292 v -2.64583 h -1.32292 -1.32292 v 2.64583 2.64583 h 1.32292 1.32292 z m -15.87501,-1.32292 v -1.32291 h -2.64583 -2.64583 v 1.32291 1.32292 h 2.64583 2.64583 z m 7.9375,-2.64583 v -1.32292 h -2.64583 -2.64583 v 1.32292 1.32292 h 2.64583 2.64583 z m -42.33333,-29.10417 v -1.32292 h 2.64583 2.64584 v -5.29166 -5.29167 h 5.29166 5.29167 v 5.29167 5.29166 h 2.64583 2.64584 v 1.32292 1.32292 h -10.58334 -10.58333 z"
       id="path1" /><path
       id="path12"
       d="m 101.24395,120.22057 v 1.32292 1.32291 h -1.322917 -1.322917 v 3.96875 3.96875 h -1.322917 -1.322916 v 2.64584 2.64583 h 1.322916 1.322917 v -1.32292 -1.32291 h 10.583334 10.58333 v 1.32291 1.32292 h 1.32292 1.32292 v 3.96875 3.96875 h 2.64583 2.64583 v -1.32292 -1.32291 h 3.96875 3.96875 v -1.32292 -1.32292 h 3.96875 3.96875 v -1.32291 -1.32292 h -1.32291 -1.32292 v -1.32292 -1.32291 h -1.32292 -1.32291 v -1.32292 -1.32292 h -1.32292 -1.32292 v -2.64583 -2.64583 h -2.64583 -2.64583 v -1.32292 -1.32292 h -1.32292 -1.32292 v -1.32291 -1.32292 h -13.22916 z m 18.52083,15.875 h -2.64583 -2.64583 v 1.32292 1.32291 h -5.29167 -5.29167 v -1.32291 -1.32292 h -2.64583 -2.645834 v 1.32292 1.32291 h -1.322917 -1.322916 v 1.32292 1.32292 h -1.322917 -1.322917 v 7.9375 7.9375 h 1.322917 1.322917 v 1.32291 1.32292 h 1.322916 1.322917 v 1.32292 1.32291 h 15.875004 15.875 v -1.32291 -1.32292 h 1.32291 1.32292 v -1.32292 -1.32291 h -2.64583 -2.64584 v -1.32292 -1.32292 h -2.64583 -2.64583 v -1.32291 -1.32292 h -1.32292 -1.32292 v -1.32292 -1.32291 h -1.32291 -1.32292 v -2.64584 -2.64583 h 1.32292 1.32291 v -3.96875 z m -18.52083,-10.58333 h 2.64583 2.64584 v 1.32291 1.32292 h -2.64584 -2.64583 v -1.32292 z m 13.22917,0 h 2.64583 2.64583 v 1.32291 1.32292 h -2.64583 -2.64583 v -1.32292 z m -5.29167,2.64583 h 1.32292 1.32291 v 1.32292 1.32291 h -1.32291 -1.32292 v -1.32291 z m 29.10417,13.22917 v 1.32291 1.32292 h 2.64583 2.64583 v -1.32292 -1.32291 h -2.64583 z m -7.9375,2.64583 v 1.32292 1.32291 h 2.64583 2.64583 v -1.32291 -1.32292 h -2.64583 z m 18.52083,0 v 2.64583 2.64584 h 1.32292 1.32291 v -2.64584 -2.64583 h -1.32291 z m -26.45833,2.64583 v 1.32292 1.32292 h 2.64583 2.64583 v -1.32292 -1.32292 h -2.64583 z m 18.52083,0 v 1.32292 1.32292 h 2.64583 2.64584 v -1.32292 -1.32292 h -2.64584 z m -7.9375,2.64584 v 1.32291 1.32292 h 2.64583 2.64584 v -1.32292 -1.32291 h -2.64584 z m 7.9375,2.64583 v 1.32292 1.32291 h 1.32292 1.32291 v -1.32291 -1.32292 h -1.32291 z"
       style="fill:#fff1df;fill-opacity:1" /></g></svg>
